# Tiled2Unity generated file. Do not modify by hand.
# Wavefront file for 'Level_01_mesh_0003.obj'

# Vertices (Count = 96)
v -4.96 -8.16 0
v -5.12 -8.16 0
v -5.12 -8 0
v -4.96 -8 0
v -4.96 -8.32 0
v -5.12 -8.32 0
v -5.12 -8.16 0
v -4.96 -8.16 0
v -4.96 -8.48 0
v -5.12 -8.48 0
v -5.12 -8.32 0
v -4.96 -8.32 0
v -4.96 -8.639999 0
v -5.12 -8.639999 0
v -5.12 -8.48 0
v -4.96 -8.48 0
v -4.96 -8.8 0
v -5.12 -8.8 0
v -5.12 -8.639999 0
v -4.96 -8.639999 0
v -4.96 -8.96 0
v -5.12 -8.96 0
v -5.12 -8.8 0
v -4.96 -8.8 0
v -4.96 -9.12 0
v -5.12 -9.12 0
v -5.12 -8.96 0
v -4.96 -8.96 0
v -7.04 -9.28 0
v -7.2 -9.28 0
v -7.2 -9.12 0
v -7.04 -9.12 0
v -7.04 -9.44 0
v -7.2 -9.44 0
v -7.2 -9.28 0
v -7.04 -9.28 0
v -7.04 -9.599999 0
v -7.2 -9.599999 0
v -7.2 -9.44 0
v -7.04 -9.44 0
v -7.04 -9.76 0
v -7.2 -9.76 0
v -7.2 -9.599999 0
v -7.04 -9.599999 0
v -7.04 -9.92 0
v -7.2 -9.92 0
v -7.2 -9.76 0
v -7.04 -9.76 0
v -7.04 -10.08 0
v -7.2 -10.08 0
v -7.2 -9.92 0
v -7.04 -9.92 0
v -8.8 -10.4 0
v -8.96 -10.4 0
v -8.96 -10.24 0
v -8.8 -10.24 0
v -8.8 -10.56 0
v -8.96 -10.56 0
v -8.96 -10.4 0
v -8.8 -10.4 0
v -8.8 -10.72 0
v -8.96 -10.72 0
v -8.96 -10.56 0
v -8.8 -10.56 0
v -8.8 -10.88 0
v -8.96 -10.88 0
v -8.96 -10.72 0
v -8.8 -10.72 0
v -8.8 -11.04 0
v -8.96 -11.04 0
v -8.96 -10.88 0
v -8.8 -10.88 0
v -10.4 -12.16 0
v -10.56 -12.16 0
v -10.56 -12 0
v -10.4 -12 0
v -9.12 -12.64 0
v -9.28 -12.64 0
v -9.28 -12.48 0
v -9.12 -12.48 0
v -9.44 -12.8 0
v -9.599999 -12.8 0
v -9.599999 -12.64 0
v -9.44 -12.64 0
v -10.4 -12.8 0
v -10.56 -12.8 0
v -10.56 -12.64 0
v -10.4 -12.64 0
v -9.44 -13.28 0
v -9.599999 -13.28 0
v -9.599999 -13.12 0
v -9.44 -13.12 0
v -10.56 -13.44 0
v -10.72 -13.44 0
v -10.72 -13.28 0
v -10.56 -13.28 0

# Texture cooridinates (Count = 8)
vt 0.28 0.5217391
vt 0.32 0.5217391
vt 0.32 0.5652174
vt 0.28 0.5652174
vt 0.28 0.6521739
vt 0.32 0.6521739
vt 0.32 0.6956522
vt 0.28 0.6956522

# Normal
vn 0 0 -1

# Mesh description
g Level_01_mesh_0003

# Faces
f 1/1/1 2/2/1 3/3/1 4/4/1
f 5/1/1 6/2/1 7/3/1 8/4/1
f 9/1/1 10/2/1 11/3/1 12/4/1
f 13/1/1 14/2/1 15/3/1 16/4/1
f 17/1/1 18/2/1 19/3/1 20/4/1
f 21/1/1 22/2/1 23/3/1 24/4/1
f 25/1/1 26/2/1 27/3/1 28/4/1
f 29/1/1 30/2/1 31/3/1 32/4/1
f 33/1/1 34/2/1 35/3/1 36/4/1
f 37/1/1 38/2/1 39/3/1 40/4/1
f 41/1/1 42/2/1 43/3/1 44/4/1
f 45/1/1 46/2/1 47/3/1 48/4/1
f 49/1/1 50/2/1 51/3/1 52/4/1
f 53/1/1 54/2/1 55/3/1 56/4/1
f 57/1/1 58/2/1 59/3/1 60/4/1
f 61/1/1 62/2/1 63/3/1 64/4/1
f 65/1/1 66/2/1 67/3/1 68/4/1
f 69/1/1 70/2/1 71/3/1 72/4/1
f 73/5/1 74/6/1 75/7/1 76/8/1
f 77/5/1 78/6/1 79/7/1 80/8/1
f 81/5/1 82/6/1 83/7/1 84/8/1
f 85/5/1 86/6/1 87/7/1 88/8/1
f 89/5/1 90/6/1 91/7/1 92/8/1
f 93/5/1 94/6/1 95/7/1 96/8/1

